<svg width="32" height="32" viewBox="0 0 32 32" fill="none" xmlns="http://www.w3.org/2000/svg">
<rect width="32" height="32" fill="white"/>
<path d="M7.36 16.72H9.6V19.008L7.744 20.08H3.216L1.36 19.008V9.792L3.216 8.72H7.744L9.6 9.792V12.08H7.36V10.64H3.6V18.16H7.36V16.72ZM21.0369 13.248V15.168H19.8529V19.008L17.9969 20.08H14.0129L12.1569 19.008V15.024L13.5489 14.224V14.192L12.1569 13.392V9.792L14.0129 8.72H17.3569L19.2129 9.792V12.08H16.9729V10.64H14.3969V13.248H16.7169V15.168H14.3969V18.16H17.6129V14.32L19.4689 13.248H21.0369ZM27.1015 10.72V20H24.8615V10.72H21.8375V8.8H30.1255V10.72H27.1015Z" fill="black"/>
</svg>
