<svg width="152" height="16" viewBox="0 0 152 16" fill="none" xmlns="http://www.w3.org/2000/svg">
<path d="M8.2 10.9H11V13.76L8.68 15.1H3.02L0.7 13.76V2.24L3.02 0.899999H8.68L11 2.24V5.1H8.2V3.3H3.5V12.7H8.2V10.9ZM25.0961 13.76L22.7761 15.1H16.5161L14.1961 13.76V2.24L16.5161 0.899999H22.7761L25.0961 2.24V13.76ZM16.9961 3.3V12.7H22.2961V3.3H16.9961ZM31.293 9V15H28.493V0.999999H37.073V3.4H31.293V6.6H35.873V9H31.293ZM42.0742 9V15H39.2742V0.999999H47.8542V3.4H42.0742V6.6H46.6542V9H42.0742ZM52.8555 9V12.6H58.4355V15H50.0555V0.999999H58.4355V3.4H52.8555V6.6H57.2355V9H52.8555ZM63.832 9V12.6H69.412V15H61.032V0.999999H69.412V3.4H63.832V6.6H68.212V9H63.832ZM88.3039 6.56V8.96H86.8239V13.76L84.5039 15.1H79.5239L77.2039 13.76V8.78L78.9439 7.78V7.74L77.2039 6.74V2.24L79.5239 0.899999H83.7039L86.0239 2.24V5.1H83.2239V3.3H80.0039V6.56H82.9039V8.96H80.0039V12.7H84.0239V7.9L86.3439 6.56H88.3039ZM101.08 3.4V15H98.28V3.4H94.5V0.999999H104.86V3.4H101.08ZM117.967 13.76L115.647 15.1H109.387L107.067 13.76V2.24L109.387 0.899999H115.647L117.967 2.24V13.76ZM109.867 3.3V12.7H115.167V3.3H109.867ZM124.164 9V15H121.364V0.999999H129.944V3.4H124.164V6.6H128.744V9H124.164ZM134.945 9V12.6H140.525V15H132.145V0.999999H140.525V3.4H134.945V6.6H139.325V9H134.945ZM145.922 9V12.6H151.502V15H143.122V0.999999H151.502V3.4H145.922V6.6H150.302V9H145.922Z" fill="white"/>
</svg>
