<svg width="48" height="16" viewBox="0 0 48 16" fill="none" xmlns="http://www.w3.org/2000/svg">
<path d="M8.2 10.9H11V13.76L8.68 15.1H3.02L0.7 13.76V2.24L3.02 0.899999H8.68L11 2.24V5.1H8.2V3.3H3.5V12.7H8.2V10.9ZM30.4914 6.56V8.96H29.0114V13.76L26.6914 15.1H21.7114L19.3914 13.76V8.78L21.1314 7.78V7.74L19.3914 6.74V2.24L21.7114 0.899999H25.8914L28.2114 2.24V5.1H25.4114V3.3H22.1914V6.56H25.0914V8.96H22.1914V12.7H26.2114V7.9L28.5314 6.56H30.4914ZM43.2675 3.4V15H40.4675V3.4H36.6875V0.999999H47.0475V3.4H43.2675Z" fill="white"/>
</svg>
